<mxfile host="app.diagrams.net" modified="2024-02-27T04:03:05.063Z" agent="Mozilla/5.0 (Windows NT 10.0; Win64; x64) AppleWebKit/537.36 (KHTML, like Gecko) Chrome/122.0.0.0 Safari/537.36" version="23.1.7" etag="nZBFUZ1-iTV34WrhT3gM" type="github">
  <diagram name="Page-1" id="HygGWPFdPHWC81CJz0ov">
    <mxGraphModel>
      <root>
        <mxCell id="0" />
        <mxCell id="1" parent="0" />
      </root>
    </mxGraphModel>
  </diagram>
</mxfile>
